<svg data-v-0dd9719b="" version="1.0" xmlns="http://www.w3.org/2000/svg" xmlns:xlink="http://www.w3.org/1999/xlink" width="100%" height="100%" viewBox="0 0 340.000000 250.000000" preserveAspectRatio="xMidYMid meet" color-interpolation-filters="sRGB" style="margin: auto;"> <rect data-v-0dd9719b="" x="0" y="0" width="100%" height="100%" fill="#fff" fill-opacity="1" class="background"></rect> <rect data-v-0dd9719b="" x="0" y="0" width="100%" height="100%" fill="url(#watermark)" fill-opacity="1" class="watermarklayer"></rect> <g data-v-0dd9719b="" fill="#333" class="icon-text-wrapper icon-svg-group iconsvg" transform="translate(53.459999084472656,94.99699974060059)"><g class="iconsvg-imagesvg" transform="translate(0,0)"><g><rect fill="#333" fill-opacity="0" stroke-width="2" x="0" y="0" width="60" height="60.006000600060005" class="image-rect"></rect> <svg x="0" y="0" width="60" height="60.006000600060005" filtersec="colorsb3020166954" class="image-svg-svg primary" style="overflow: visible;"><svg xmlns="http://www.w3.org/2000/svg" viewBox="0.01964184083044529 -0.03000464104115963 99.9903564453125 100.00001525878906"><path d="M75.74 61.83H62.5a17.53 17.53 0 0 1-26.75-1.37 2.57 2.57 0 0 0 .3-1.17 2.53 2.53 0 1 0-2.53 2.53 2.73 2.73 0 0 0 .5 0A19.68 19.68 0 0 0 63.41 64h9.45a26.79 26.79 0 1 1 0-28h-9.1a19.69 19.69 0 0 0-30.19 2.5 2.53 2.53 0 1 0 2.48 2.5 2.47 2.47 0 0 0-.53-1.53 17.53 17.53 0 0 1 27.29-1.33H98.6a50 50 0 1 0 0 23.66zm-43.45-2.54a1.23 1.23 0 1 1 1.23 1.23 1.24 1.24 0 0 1-1.23-1.23zM34.75 41a1.23 1.23 0 1 1-1.23-1.23A1.23 1.23 0 0 1 34.75 41zM83.6 73.42a3.7 3.7 0 0 1-.95-.14 40 40 0 1 1 0-46.56 3.7 3.7 0 0 1 .95-.14 3.86 3.86 0 1 1-3.27 1.86 37.14 37.14 0 1 0 0 43.12 3.83 3.83 0 1 1 3.27 1.86z" fill="#0080df"></path><path d="M99.87 46.27H58.16a9 9 0 1 0 0 7.46h41.71c.09-1.23.14-2.47.14-3.73s-.01-2.5-.14-3.73zM50 53.73A3.73 3.73 0 1 1 53.73 50 3.73 3.73 0 0 1 50 53.73z" fill="#f6911e"></path><path d="M81.74 30.42a1.87 1.87 0 1 0 1.86-1.87 1.87 1.87 0 0 0-1.86 1.87zM83.6 67.71a1.87 1.87 0 1 0 1.87 1.87 1.87 1.87 0 0 0-1.87-1.87z" fill="#0080df"></path></svg></svg> <!----></g></g> <g transform="translate(67,5.553001403808594)"><g data-gra="path-name" fill-rule="" class="tp-name iconsvg-namesvg"><g transform="scale(1)"><g><path d="M35.1 2.7L29.46-12.72 9.6-12.72 3.96 2.7 1.26 2.7 18.48-43.62 20.76-43.62 38.04 2.7 35.1 2.7ZM10.56-15.36L28.5-15.36 19.56-39.9 10.56-15.36ZM69.54-19.8L69.54-19.8 69.54 2.7 67.08 2.7 67.08-19.44Q67.08-24.36 64.86-26.7 62.64-29.04 57.96-29.04L57.96-29.04Q54.6-29.04 51.96-27.36 49.32-25.68 47.85-22.62 46.38-19.56 46.38-15.66L46.38-15.66 46.38 2.7 43.8 2.7 43.8-22.8Q43.8-27.9 43.62-30.84L43.62-30.84 45.78-30.84Q46.02-28.86 46.14-23.28L46.14-23.28Q47.82-27.3 50.91-29.37 54-31.44 58.44-31.44L58.44-31.44Q63.72-31.44 66.63-28.38 69.54-25.32 69.54-19.8ZM104.46 2.7L102.24 2.7Q102 0.6 101.88-5.28L101.88-5.28Q100.38-1.2 97.44 1.05 94.5 3.3 90.42 3.3L90.42 3.3Q86.46 3.3 83.43 1.11 80.4-1.08 78.72-5.01 77.04-8.94 77.04-14.04L77.04-14.04Q77.04-19.14 78.72-23.1 80.4-27.06 83.43-29.25 86.46-31.44 90.42-31.44L90.42-31.44Q94.44-31.44 97.38-29.22 100.32-27 101.82-23.04L101.82-23.04 101.82-45.6 104.28-45.6 104.28-5.34Q104.28-0.3 104.46 2.7L104.46 2.7ZM101.82-14.04L101.82-14.04Q101.82-18.48 100.41-21.9 99-25.32 96.48-27.18 93.96-29.04 90.72-29.04L90.72-29.04Q87.48-29.04 84.99-27.15 82.5-25.26 81.09-21.87 79.68-18.48 79.68-14.04L79.68-14.04Q79.68-9.66 81.09-6.27 82.5-2.88 85.02-0.99 87.54 0.9 90.72 0.9L90.72 0.9Q93.96 0.9 96.48-0.99 99-2.88 100.41-6.27 101.82-9.66 101.82-14.04ZM138.96-14.46L138.96-14.04 114.66-14.04Q114.66-7.08 117.9-3.09 121.14 0.9 126.78 0.9L126.78 0.9Q130.5 0.9 132.63-0.6 134.76-2.1 136.2-5.7L136.2-5.7 138.36-4.68Q136.98-0.6 134.1 1.35 131.22 3.3 126.72 3.3L126.72 3.3Q122.34 3.3 119.01 1.2 115.68-0.9 113.85-4.83 112.02-8.76 112.02-14.04L112.02-14.04Q112.02-19.2 113.76-23.13 115.5-27.06 118.59-29.25 121.68-31.44 125.64-31.44L125.64-31.44Q131.88-31.44 135.42-26.88 138.96-22.32 138.96-14.46L138.96-14.46ZM114.78-16.44L114.78-16.44 136.38-16.44Q135.9-22.5 133.14-25.77 130.38-29.04 125.64-29.04L125.64-29.04Q121.2-29.04 118.26-25.62 115.32-22.2 114.78-16.44ZM146.22-22.74L146.22-22.74Q146.22-26.58 149.04-29.01 151.86-31.44 156.3-31.44L156.3-31.44Q160.26-31.44 162.93-29.67 165.6-27.9 166.14-24.84L166.14-24.84 163.92-23.82Q163.26-26.58 161.46-27.81 159.66-29.04 156.3-29.04L156.3-29.04Q152.82-29.04 150.84-27.39 148.86-25.74 148.86-22.74L148.86-22.74Q148.86-20.04 150.66-18.66 152.46-17.28 157.02-16.44L157.02-16.44Q162.42-15.48 164.88-13.02 167.34-10.56 167.34-6.24L167.34-6.24Q167.34-1.98 164.31 0.66 161.28 3.3 156.42 3.3L156.42 3.3Q151.74 3.3 148.74 1.23 145.74-0.84 144.78-4.68L144.78-4.68 147-5.64Q147.96-2.22 150.24-0.66 152.52 0.9 156.42 0.9L156.42 0.9Q160.2 0.9 162.48-1.05 164.76-3 164.76-6.24L164.76-6.24Q164.76-9.6 162.87-11.31 160.98-13.02 156.36-13.92L156.36-13.92Q151.08-14.94 148.65-17.07 146.22-19.2 146.22-22.74Z" transform="translate(-1.2599999904632568, 45.599998474121094)"></path></g> <!----> <!----> <!----> <!----> <!----> <!----> <!----></g></g> <!----></g></g><defs v-gra="od"></defs></svg>